<svg width="42" height="18" viewBox="0 0 42 18" fill="none" xmlns="http://www.w3.org/2000/svg">
<path fill-rule="evenodd" clip-rule="evenodd" d="M7.61188 0.0638893C7.20349 0.118482 6.98125 0.161862 6.47522 0.285824C5.69337 0.477399 4.4743 1.04922 3.76173 1.55866C2.49236 2.46617 1.45549 3.73919 0.789334 5.20798C0.58206 5.66501 0.297486 6.50747 0.22429 6.88083C0.0208922 7.91833 0.000689225 8.10981 5.15109e-06 9.00648C-0.000359688 9.50822 0.0187025 10.0214 0.0423715 10.1468C0.0660404 10.2722 0.118121 10.5566 0.158071 10.7787C0.392389 12.0809 1.02019 13.5122 1.81494 14.556C2.27049 15.1543 3.39201 16.2902 3.52718 16.2902C3.68497 16.2902 3.88527 15.0108 3.89166 13.9621C3.89685 13.1072 3.84523 12.6963 3.55783 11.3047C3.43073 10.6892 3.43232 9.95209 3.56184 9.45933C3.61497 9.25726 3.67791 9.01713 3.70167 8.92566C3.79114 8.58186 3.86803 7.9791 3.89809 7.38571C3.954 6.28197 4.07052 5.93241 4.5693 5.37194C5.01413 4.87215 5.03228 4.82507 4.9734 4.32499C4.94673 4.0984 4.92506 3.81678 4.92525 3.69919C4.92607 3.12936 5.46575 2.51734 6.26074 2.18465C6.45958 2.10141 6.67574 2.12136 6.8412 2.23815C7.17608 2.47453 7.13996 2.80812 6.6954 3.58406C6.31081 4.25533 6.22065 4.48515 6.26667 4.67687C6.2876 4.76401 6.46633 4.9839 6.74643 5.26713C7.26815 5.79462 7.44118 6.1076 7.75736 7.09587C8.06227 8.04899 8.25358 8.28076 8.85137 8.4214C9.84319 8.65474 11.1047 8.25587 11.4026 7.61472C11.4911 7.42419 11.4983 7.36832 11.4564 7.19803C11.2692 6.43715 11.2716 6.45644 11.3333 6.21284C11.4097 5.91113 11.5925 5.58827 11.8486 5.3031C12.3537 4.74044 12.9847 4.60878 13.3008 5.00015C13.4826 5.22537 13.4367 5.47543 13.093 6.13016C12.7602 6.76428 12.6416 7.09758 12.7091 7.20972C12.9404 7.59434 14.22 6.7257 14.7238 5.84204C14.8273 5.66068 14.9743 5.44721 15.0506 5.36776C15.3205 5.08648 15.6892 5.14108 15.846 5.48545C16.0409 5.91345 15.7781 6.44518 14.859 7.48211C14.1998 8.22584 13.7539 8.80365 13.6211 9.08616C13.5148 9.31242 13.4984 9.40602 13.4984 9.78694C13.4984 10.0287 13.5211 10.3561 13.549 10.5145C13.6701 11.2047 13.9318 12.2207 14.0881 12.608C14.5662 13.7924 15.0929 14.7698 15.253 14.7698C15.3275 14.7698 15.9898 13.7983 16.2283 13.3392C16.5749 12.6721 16.9472 11.6153 17.0967 10.8737C17.4976 8.88632 17.2432 6.82719 16.3694 4.98443C15.478 3.10461 13.787 1.46002 11.9706 0.706461C11.77 0.623217 11.5647 0.537075 11.5146 0.515077C11.3954 0.462812 11.0208 0.348542 10.7621 0.285539C9.60185 0.00297716 8.59681 -0.0677228 7.61188 0.0638893ZM21.0688 3.17454V5.21962H21.4108C21.6526 5.21962 21.7537 5.20223 21.7556 5.16022C21.7571 5.12758 21.756 4.88289 21.7531 4.61648C21.7472 4.07022 21.7702 4.00199 22.0854 3.63158C22.2912 3.38959 22.4047 3.3636 22.4692 3.54368C22.5084 3.65315 23.2001 4.9189 23.3136 5.08895C23.3971 5.21396 23.4174 5.21962 23.7854 5.21962C23.9969 5.21962 24.1699 5.20223 24.1699 5.18094C24.1699 5.14222 23.5535 4.04285 23.0923 3.25912C22.9576 3.03015 22.8474 2.81401 22.8474 2.77881C22.8474 2.70844 22.9241 2.60595 23.6079 1.76235C23.8632 1.44748 24.0598 1.17713 24.045 1.16164C24.0301 1.14615 23.8474 1.13346 23.639 1.13346C23.1958 1.13346 23.2988 1.04647 22.4879 2.10587C22.2086 2.47082 21.9492 2.78736 21.9117 2.80926C21.7658 2.89431 21.7474 2.79553 21.7564 1.97231L21.7653 1.15722L21.417 1.14335L21.0688 1.12947V3.17454ZM25.8472 1.24037C25.8109 1.29914 25.7694 1.39004 25.7552 1.4423C25.7077 1.61672 25.1864 3.13772 24.9247 3.86548C24.7482 4.35616 24.4892 5.14122 24.4892 5.18526C24.4892 5.20636 24.6482 5.21738 24.8426 5.20973L25.1959 5.19586L25.2498 5.02419C25.2794 4.92978 25.3348 4.7748 25.3729 4.67972L25.4422 4.50692H26.1459C26.6543 4.50692 26.862 4.5234 26.8946 4.56631C26.9194 4.599 26.9816 4.75399 27.0328 4.91078L27.1259 5.19586L27.4721 5.20973C27.7434 5.22061 27.8183 5.20935 27.8183 5.15766C27.8183 5.12136 27.7549 4.91202 27.6773 4.69241C27.5998 4.4728 27.4882 4.15413 27.4295 3.98427C27.2676 3.5165 27.0234 2.81971 26.8633 2.36881C26.7844 2.14669 26.6885 1.86873 26.6502 1.75114C26.612 1.63354 26.5485 1.44648 26.5092 1.3354L26.4378 1.13346H26.1756C25.9537 1.13346 25.9032 1.1499 25.8472 1.24037ZM28.9907 1.2063C28.7196 1.30998 28.5563 1.45446 28.4102 1.71978C28.2936 1.93164 28.2751 2.0136 28.2748 2.3231C28.2741 2.96278 28.543 3.30117 29.142 3.41411C30.0769 3.59043 30.2217 3.66783 30.2664 4.01496C30.298 4.26051 30.1316 4.48097 29.8558 4.55904C29.5586 4.64318 29.0387 4.58004 28.7688 4.42695L28.5434 4.29914L28.3317 4.51979L28.1199 4.7404L28.2085 4.84431C28.4844 5.16773 29.3556 5.35061 29.9681 5.21377C30.4186 5.11309 30.6937 4.89762 30.8572 4.51742C31.0744 4.0124 30.939 3.37595 30.5587 3.11373C30.3732 2.98582 29.9266 2.84447 29.7044 2.84323C29.5362 2.84228 29.2366 2.74559 29.1086 2.65099C28.8528 2.46175 28.8872 2.07489 29.1781 1.86892C29.418 1.69911 29.8499 1.70239 30.1853 1.87648L30.4268 2.00187L30.6389 1.77898L30.8511 1.5561L30.7279 1.44411C30.4942 1.23158 30.1422 1.13313 29.6294 1.13679C29.3527 1.13879 29.0934 1.16701 28.9907 1.2063ZM31.786 3.17654V5.21962H32.128H32.47V4.51599C32.47 4.02503 32.4873 3.78956 32.527 3.73691C32.572 3.67733 32.7049 3.657 33.1573 3.64041C33.6822 3.62117 33.7508 3.60787 33.9712 3.48291C34.505 3.18025 34.7171 2.48555 34.4604 1.88085C34.3961 1.72919 34.2745 1.55776 34.1573 1.45318C33.8545 1.18321 33.6175 1.13346 32.634 1.13346H31.786V3.17654ZM35.2975 3.17654V5.22361L35.651 5.20973L36.0044 5.19586V3.17654V1.15722L35.651 1.14335L35.2975 1.12947V3.17654ZM33.596 1.90556C33.6867 1.9697 33.7769 2.09323 33.8217 2.21439C33.9746 2.6289 33.7117 2.95232 33.1728 3.01243C32.831 3.05058 32.5634 3.01699 32.5063 2.92876C32.4846 2.89517 32.4772 2.69665 32.4899 2.4876C32.5026 2.27854 32.5135 2.03798 32.5143 1.95307L32.5156 1.79865H32.9803C33.3869 1.79865 33.4638 1.812 33.596 1.90556ZM26.2705 2.5142C26.3519 2.68772 26.6326 3.65966 26.6326 3.76789V3.88924H26.1751C25.6334 3.88924 25.625 3.88045 25.7579 3.45069C25.8921 3.0167 26.0581 2.54442 26.1016 2.4732C26.1464 2.3996 26.2258 2.41884 26.2705 2.5142ZM21.0688 12.3431V16.9554H21.8897H22.7106V15.1776C22.7106 14.1997 22.723 13.3659 22.7383 13.3245C22.7616 13.2612 22.8604 13.2495 23.3653 13.2501C23.695 13.2505 23.9874 13.2665 24.0151 13.2857C24.061 13.3176 24.7316 14.7144 25.4119 16.1952C25.562 16.5219 25.7165 16.8266 25.7553 16.8723C25.818 16.9462 25.9259 16.9554 26.7233 16.9554C27.2168 16.9554 27.6342 16.9414 27.6507 16.9242C27.6672 16.907 27.6635 16.8696 27.6423 16.841C27.6213 16.8125 27.311 16.1905 26.9528 15.4588C26.5947 14.727 26.1793 13.8867 26.0299 13.5912C25.8805 13.2958 25.7692 13.0244 25.7826 12.9882C25.7959 12.9519 25.926 12.8626 26.0715 12.7899C26.4152 12.618 26.9355 12.0797 27.0969 11.729C27.3689 11.1376 27.4298 10.5092 27.275 9.88862C27.0702 9.06711 26.6141 8.44416 25.9768 8.11551C25.3227 7.77817 25.2938 7.77456 23.064 7.75146L21.0688 7.7308V12.3431ZM28.6604 7.79684C28.6483 7.82972 28.6438 9.8985 28.6503 12.3941L28.662 16.9317H31.5351H34.4082V16.1715V15.4112L32.3666 15.3989L30.325 15.3865L30.3372 14.2348L30.3494 13.0831L32.0729 13.0593L33.7963 13.0356L33.7991 12.2991L33.802 11.5627L32.0757 11.5389L30.3494 11.5151L30.3372 10.4109L30.3249 9.30677L32.3666 9.29437L34.4082 9.28201V8.5218V7.76158L31.5453 7.74933C29.279 7.73968 28.6777 7.74956 28.6604 7.79684ZM35.6395 7.79247C35.6266 7.82772 35.6213 9.8985 35.6278 12.3941L35.6396 16.9317L37.1217 16.9463C39.4104 16.9689 39.9761 16.8793 40.6813 16.3827C41.2226 16.0015 41.6774 15.3301 41.8382 14.6748C42.043 13.8401 42.0566 11.078 41.8604 10.1373C41.6904 9.32183 41.1692 8.57658 40.4857 8.17163C40.2227 8.01583 40.1375 7.98181 39.6756 7.84796C39.319 7.74467 35.6754 7.69454 35.6395 7.79247ZM24.8312 9.35932C25.0986 9.42978 25.3578 9.6338 25.5137 9.89665C25.7943 10.3695 25.7024 11.0994 25.318 11.4511C24.9799 11.7604 24.8403 11.7935 23.7856 11.8153C22.8985 11.8337 22.8268 11.8289 22.7697 11.7475C22.722 11.6795 22.7091 11.4094 22.7122 10.5403C22.7144 9.92449 22.731 9.39562 22.7492 9.36507C22.8091 9.26401 24.4523 9.25949 24.8312 9.35932ZM39.2595 9.37956C39.6762 9.53079 40.0078 9.84904 40.1479 10.2323C40.2992 10.6462 40.329 10.9886 40.3302 12.3229C40.3317 14.1026 40.2561 14.4997 39.8313 14.9426C39.4729 15.3162 39.1988 15.3921 38.1701 15.4027C37.4817 15.4099 37.3396 15.3996 37.3033 15.34C37.2558 15.262 37.2393 9.50832 37.2862 9.38094C37.3261 9.27251 38.9614 9.27137 39.2595 9.37956ZM8.45903 9.71681C7.91301 9.84139 7.70591 10.1088 7.53412 10.9113C7.46558 11.2316 7.45582 11.5815 7.45636 13.7008C7.45705 16.1633 7.47816 16.5539 7.64412 17.1738C7.73542 17.5149 7.93759 17.8263 8.12913 17.921C8.44594 18.0776 9.96162 17.9877 10.6507 17.7713C11.0888 17.6337 11.2472 17.4248 11.29 16.9278C11.319 16.5915 11.2508 15.3557 11.1749 14.8421C11.1516 14.6848 11.111 14.3956 11.0846 14.1997C11.0581 14.0037 11.0075 13.6402 10.9721 13.3919C10.9368 13.1437 10.8833 12.7481 10.8532 12.5129C10.7402 11.6299 10.5647 10.9007 10.3956 10.6124C10.1438 10.1828 9.59738 9.85669 8.96069 9.75586C8.615 9.70113 8.54997 9.69609 8.45903 9.71681ZM5.36588 13.2196C5.32689 13.2816 5.25866 13.4687 5.21424 13.6353C5.09275 14.0911 5.09316 16.2336 5.21484 16.815C5.26158 17.0383 5.32383 17.2552 5.35325 17.2971C5.40802 17.3752 5.71138 17.5256 5.81399 17.5256C5.95519 17.5256 5.99641 17.2317 5.99395 16.2427C5.99058 14.8824 5.81486 13.6259 5.57042 13.2137C5.49015 13.0784 5.45403 13.0794 5.36588 13.2196ZM12.567 13.38C12.4461 13.5052 12.4039 13.7722 12.4039 14.4115C12.4039 15.4431 12.5987 16.5194 12.8232 16.7276C12.9317 16.8283 13.0245 16.796 13.4501 16.5091C13.9087 16.2 14 16.0804 14 15.7884C14 15.222 13.3747 13.8418 12.949 13.4687C12.8114 13.348 12.6371 13.3075 12.567 13.38Z" fill="white"/>
</svg>
