<svg width="190" height="51" viewBox="0 0 190 51" fill="none" xmlns="http://www.w3.org/2000/svg">
<path fill-rule="evenodd" clip-rule="evenodd" d="M0 9.47143V47.7619L11.9158 51L11.9974 37.319L62.762 24.2048V31.5714L16.2414 44.119L37.6246 49.5429L62.6804 43.3095L62.762 50.7571L74.1881 47.7619L74.2698 9.71429L11.9974 25.8238V17.6476L59.579 5.82857L37.6246 0L0 9.47143Z" fill="white"/>
<path d="M85.6143 47.6811C85.6143 47.3572 85.6959 47.0334 85.7775 46.7906C85.8591 46.5477 86.0223 46.2239 86.2672 46.062C86.512 45.8191 86.7569 45.6572 87.0017 45.5763C87.3282 45.4144 87.6546 45.4144 87.9811 45.4144C88.3892 45.4144 88.7156 45.4953 89.0421 45.5763C89.2869 45.7382 89.6134 45.9001 89.8583 46.143L89.3686 46.7096C89.2053 46.5477 88.9605 46.3858 88.7156 46.3049C88.4708 46.2239 88.3076 46.143 88.0627 46.143C87.7363 46.143 87.4914 46.2239 87.2466 46.3858C87.0017 46.5477 86.8385 46.7096 86.6753 46.9525C86.512 47.1953 86.512 47.4382 86.512 47.762C86.512 48.2477 86.6753 48.5715 86.9201 48.8953C87.2466 49.2192 87.573 49.3811 87.9811 49.3811C88.226 49.3811 88.4708 49.3001 88.7156 49.2191C88.8789 49.1382 89.1237 48.9763 89.3686 48.7334L89.8583 49.3001C89.695 49.462 89.5318 49.6239 89.3686 49.7049C89.2053 49.7858 88.9605 49.9477 88.7973 49.9477C88.5524 50.0287 88.3076 50.0287 88.0627 50.0287C87.6546 50.0287 87.2466 49.9477 86.8385 49.7049C86.512 49.462 86.1856 49.2191 86.0223 48.8144C85.6959 48.4906 85.6143 48.0858 85.6143 47.6811ZM91.3273 46.143V45.3334H95.0816V46.143H93.6125V50.0287H92.7964V46.143H91.3273ZM96.3875 47.6811C96.3875 47.3572 96.4691 47.0334 96.5507 46.7906C96.6323 46.4668 96.8772 46.2239 97.0404 46.062C97.2852 45.8191 97.5301 45.6572 97.7749 45.5763C98.0198 45.4953 98.4278 45.4144 98.7543 45.4144C99.0808 45.4144 99.4072 45.4953 99.7337 45.5763C100.06 45.7382 100.305 45.9001 100.468 46.062C100.713 46.3049 100.876 46.5477 100.958 46.7906C101.04 47.1144 101.121 47.3572 101.121 47.6811C101.121 48.0049 101.04 48.3287 100.958 48.5715C100.876 48.8953 100.631 49.1382 100.468 49.3001C100.223 49.543 99.9785 49.7049 99.7337 49.7858C99.4072 49.9477 99.0808 49.9477 98.7543 49.9477C98.2646 49.9477 97.8565 49.8668 97.5301 49.6239C97.122 49.3811 96.8772 49.1382 96.6323 48.7334C96.5507 48.4906 96.3875 48.0858 96.3875 47.6811ZM97.2852 47.6811C97.2852 48.0049 97.3668 48.2477 97.4485 48.4906C97.6117 48.7334 97.7749 48.9763 98.0198 49.0572C98.2646 49.2191 98.5095 49.3001 98.8359 49.3001C99.1624 49.3001 99.4072 49.2191 99.6521 49.0572C99.8969 48.8953 100.06 48.7334 100.223 48.4906C100.387 48.2477 100.387 48.0049 100.387 47.6811C100.387 47.3572 100.305 47.1144 100.223 46.8715C100.06 46.6287 99.8969 46.3858 99.6521 46.3049C99.4072 46.143 99.1624 46.062 98.8359 46.062C98.5095 46.062 98.2646 46.143 98.0198 46.3049C97.7749 46.4668 97.6117 46.6287 97.4485 46.8715C97.3668 47.1144 97.2852 47.3572 97.2852 47.6811ZM102.427 49.9477L102.509 49.3001H102.917C102.998 49.3001 102.998 49.2191 103.08 49.2191C103.162 49.1382 103.243 49.1382 103.243 48.9763C103.325 48.8953 103.325 48.7334 103.406 48.6525C103.488 48.4906 103.488 48.3287 103.488 48.0858C103.488 47.843 103.57 47.6001 103.57 47.2763V45.3334H106.753V49.9477H105.936V46.143H104.304V46.5477C104.304 47.1144 104.304 47.6001 104.223 48.0049C104.141 48.4096 104.141 48.7334 104.059 48.9763C103.978 49.2191 103.896 49.462 103.733 49.6239C103.57 49.7858 103.488 49.8668 103.325 49.9477C103.162 50.0287 102.998 50.0287 102.835 50.0287C102.753 50.0287 102.59 50.0287 102.427 49.9477ZM109.038 49.9477V45.3334H109.854V46.9525H110.915C111.405 46.9525 111.894 47.1144 112.221 47.3572C112.547 47.6001 112.71 47.9239 112.71 48.4096C112.71 48.8953 112.547 49.2192 112.221 49.543C111.894 49.7858 111.486 49.9477 110.915 49.9477H109.038ZM109.772 49.2191H110.833C111.16 49.2191 111.405 49.1382 111.568 48.9763C111.731 48.8144 111.813 48.6525 111.813 48.4096C111.813 48.1668 111.731 48.0049 111.568 47.843C111.405 47.6811 111.16 47.6811 110.833 47.6811H109.772V49.2191ZM113.2 49.9477V45.3334H114.016V49.9477H113.2ZM115.893 48.3287V47.6001H117.852V48.3287H115.893ZM118.913 46.143V45.3334H122.668V46.143H121.198V50.0287H120.382V46.143H118.913ZM124.545 49.9477V45.3334H126.34C126.912 45.3334 127.32 45.4953 127.646 45.7382C127.973 45.9811 128.136 46.3858 128.136 46.8715C128.136 47.1953 128.054 47.5191 127.891 47.762C127.728 48.0049 127.483 48.1668 127.238 48.3287C126.993 48.4096 126.667 48.4906 126.34 48.4906H125.442V49.9477H124.545ZM125.361 47.762H126.34C126.667 47.762 126.912 47.6811 127.075 47.5191C127.238 47.3572 127.32 47.1953 127.32 46.9525C127.32 46.7096 127.238 46.4668 127.075 46.3049C126.912 46.143 126.667 46.062 126.34 46.062H125.361V47.762ZM129.034 49.9477L131.074 45.3334H131.808L133.849 49.9477H133.033L132.543 48.8144H130.339L129.85 49.9477H129.034ZM130.666 48.1668H132.298L131.482 46.3049L130.666 48.1668ZM135.644 49.9477V45.3334H136.46V47.2763H138.664V45.3334H139.48V49.9477H138.664V48.0049H136.46V49.9477H135.644ZM141.521 47.6811C141.521 47.3572 141.602 47.0334 141.684 46.7906C141.765 46.4668 141.929 46.2239 142.174 46.062C142.418 45.8191 142.663 45.6572 142.908 45.5763C143.235 45.4144 143.561 45.4144 143.887 45.4144C144.296 45.4144 144.622 45.4953 144.948 45.5763C145.193 45.7382 145.52 45.9001 145.765 46.143L145.275 46.7096C145.112 46.5477 144.867 46.3858 144.622 46.3049C144.377 46.2239 144.214 46.143 143.969 46.143C143.643 46.143 143.398 46.2239 143.153 46.3858C142.908 46.5477 142.745 46.7096 142.582 46.9525C142.418 47.1953 142.418 47.4382 142.418 47.762C142.418 48.2477 142.582 48.5715 142.826 48.8953C143.153 49.2192 143.479 49.3811 143.887 49.3811C144.132 49.3811 144.377 49.3001 144.622 49.2191C144.785 49.1382 145.03 48.9763 145.275 48.7334L145.765 49.3001C145.601 49.462 145.438 49.6239 145.275 49.7049C145.112 49.7858 144.867 49.9477 144.704 49.9477C144.459 50.0287 144.214 50.0287 143.969 50.0287C143.561 50.0287 143.153 49.9477 142.745 49.7049C142.418 49.462 142.092 49.2191 141.929 48.8144C141.602 48.4906 141.521 48.0858 141.521 47.6811ZM147.234 47.6001C147.234 47.0334 147.479 46.5477 147.887 46.143C148.295 45.7382 148.866 45.5763 149.601 45.5763V45.1715H150.417V45.5763C151.151 45.5763 151.723 45.7382 152.131 46.143C152.539 46.5477 152.784 46.9525 152.784 47.6001C152.784 48.1668 152.539 48.6525 152.131 49.0572C151.723 49.462 151.151 49.6239 150.417 49.6239V50.1906H149.601V49.7049C148.866 49.7049 148.295 49.543 147.887 49.1382C147.479 48.7334 147.234 48.2477 147.234 47.6001ZM148.131 47.6811C148.131 48.0858 148.295 48.4096 148.54 48.6525C148.784 48.8953 149.192 48.9763 149.601 48.9763V46.3858C149.111 46.3858 148.784 46.4668 148.54 46.7096C148.213 46.9525 148.131 47.2763 148.131 47.6811ZM150.417 48.8953C150.906 48.8953 151.233 48.8144 151.478 48.5715C151.723 48.3287 151.886 48.0049 151.886 47.6001C151.886 47.1953 151.723 46.8715 151.478 46.6287C151.233 46.3858 150.825 46.3049 150.417 46.3049V48.8953ZM154.416 47.6811C154.416 47.3572 154.497 47.0334 154.579 46.7906C154.661 46.4668 154.906 46.2239 155.069 46.062C155.314 45.8191 155.558 45.6572 155.803 45.5763C156.13 45.4144 156.456 45.4144 156.783 45.4144C157.109 45.4144 157.436 45.4953 157.762 45.5763C158.089 45.7382 158.333 45.9001 158.497 46.062C158.741 46.3049 158.905 46.5477 158.986 46.7906C159.068 47.0334 159.149 47.3572 159.149 47.6811C159.149 48.0049 159.068 48.3287 158.986 48.5715C158.905 48.8953 158.66 49.1382 158.497 49.3001C158.252 49.543 158.007 49.7049 157.762 49.7858C157.436 49.9477 157.109 49.9477 156.783 49.9477C156.293 49.9477 155.885 49.8668 155.558 49.6239C155.15 49.3811 154.906 49.1382 154.661 48.7334C154.497 48.4906 154.416 48.0858 154.416 47.6811ZM155.232 47.6811C155.232 48.0049 155.314 48.2477 155.395 48.4906C155.558 48.7334 155.722 48.9763 155.967 49.0572C156.211 49.2191 156.456 49.3001 156.783 49.3001C157.109 49.3001 157.354 49.2191 157.599 49.0572C157.844 48.8953 158.007 48.7334 158.17 48.4906C158.333 48.2477 158.333 48.0049 158.333 47.6811C158.333 47.3572 158.252 47.1144 158.17 46.8715C158.007 46.6287 157.844 46.3858 157.599 46.3049C157.354 46.143 157.109 46.062 156.783 46.062C156.456 46.062 156.211 46.143 155.967 46.3049C155.722 46.4668 155.558 46.6287 155.395 46.8715C155.314 47.1144 155.232 47.3572 155.232 47.6811ZM161.19 49.9477V45.3334H162.985C163.557 45.3334 163.965 45.4953 164.291 45.7382C164.618 45.9811 164.781 46.3858 164.781 46.8715C164.781 47.1953 164.699 47.5191 164.536 47.762C164.373 48.0049 164.128 48.1668 163.883 48.3287C163.638 48.4096 163.312 48.4906 162.985 48.4906H162.088V49.9477H161.19ZM162.006 47.762H162.985C163.312 47.762 163.557 47.6811 163.72 47.5191C163.883 47.3572 163.965 47.1953 163.965 46.9525C163.965 46.7096 163.883 46.4668 163.72 46.3049C163.557 46.143 163.312 46.062 162.985 46.062H162.006V47.762ZM166.658 49.9477V45.3334H167.556L168.943 47.5191L170.331 45.3334H171.229V49.9477H170.412V46.6287L168.943 48.8144L167.474 46.6287V49.9477H166.658ZM173.351 49.9477V45.3334H176.778V46.062H174.167V47.2763H176.452V48.0049H174.167V49.2191H176.86V49.9477H173.351ZM178.737 49.9477V45.3334H180.533C181.104 45.3334 181.512 45.4953 181.839 45.7382C182.165 45.9811 182.328 46.3858 182.328 46.8715C182.328 47.1953 182.247 47.5191 182.083 47.762C181.92 48.0049 181.675 48.1668 181.43 48.3287C181.186 48.4096 180.859 48.4906 180.533 48.4906H179.553V49.9477H178.737ZM179.553 47.762H180.533C180.859 47.762 181.104 47.6811 181.267 47.5191C181.43 47.3572 181.512 47.1953 181.512 46.9525C181.512 46.7096 181.43 46.4668 181.267 46.3049C181.104 46.143 180.859 46.062 180.533 46.062H179.553V47.762ZM184.205 49.9477V45.3334H185.021V46.9525H186.082C186.572 46.9525 187.062 47.1144 187.388 47.3572C187.715 47.6001 187.878 47.9239 187.878 48.4096C187.878 48.8953 187.715 49.2192 187.388 49.543C187.062 49.7858 186.654 49.9477 186.082 49.9477H184.205ZM184.94 49.2191H186.001C186.327 49.2191 186.572 49.1382 186.735 48.9763C186.899 48.8144 186.98 48.6525 186.98 48.4096C186.98 48.1668 186.899 48.0049 186.735 47.843C186.572 47.6811 186.327 47.6811 186.001 47.6811H184.94V49.2191ZM188.368 49.9477V45.3334H189.184V49.9477H188.368ZM86.1856 36.7525H108.548C110.915 36.7525 113.2 35.5382 113.2 30.0334C113.2 27.443 112.629 25.0953 108.222 23.5572L92.3883 18.1334C90.4296 17.4858 88.5524 16.4334 87.4914 15.2191C85.8591 13.3572 85.5327 11.0096 85.5327 8.82391C85.5327 6.8001 85.7775 4.04772 88.2259 2.02391C89.3686 1.05248 91.4089 0.0810547 94.5103 0.0810547H114.669V2.75248H94.1839C92.7964 2.75248 91.0009 3.2382 90.0215 4.29058C88.7973 5.58582 88.7973 7.60963 88.7973 8.98582C88.7973 11.4953 89.0421 13.843 92.7964 15.2191L108.222 20.643C110.589 21.4525 112.629 22.262 114.016 23.5572C115.975 25.4191 116.465 27.9287 116.465 29.9525C116.465 30.2763 116.546 34.4049 114.506 36.9144C112.71 39.262 110.18 39.5049 108.14 39.5049H86.104V36.7525H86.1856ZM123.32 0.0810547H126.422V39.4239H123.32V0.0810547ZM151.967 39.4239L132.053 24.2049C130.013 22.6668 128.625 20.8049 128.625 19.1858C128.625 17.6477 130.176 15.9477 131.482 14.8953L150.09 0.0810547H154.497L134.175 16.4334C133.441 17.0001 131.645 18.1334 131.645 19.2668C131.645 20.4811 133.359 21.7763 134.583 22.6668L156.538 39.4239H151.967Z" fill="white"/>
<path d="M170.331 39.4239V2.75248H153.681V0.0810547H190V2.75248H173.351V39.4239H170.331Z" fill="white"/>
</svg>
