<svg width="190" height="51" viewBox="0 0 190 51" fill="none" xmlns="http://www.w3.org/2000/svg">
<g clip-path="url(#clip0_11_4)">
<path fill-rule="evenodd" clip-rule="evenodd" d="M0 9.47143V47.7619L11.9158 51L11.9974 37.319L62.762 24.2048V31.5714L16.2414 44.119L37.6246 49.5429L62.6804 43.3095L62.762 50.7571L74.1881 47.7619L74.2698 9.71429L11.9974 25.8238V17.6476L59.579 5.82857L37.6246 0L0 9.47143Z" fill="#26292F"/>
<path d="M86.1851 42.6714H108.548C110.915 42.6714 113.2 41.4571 113.2 35.9524C113.2 33.3619 112.628 31.0143 108.221 29.4762L92.3879 24.0524C90.4291 23.4048 88.552 22.3524 87.491 21.1381C85.8587 19.2762 85.5322 16.9286 85.5322 14.7429C85.5322 12.719 85.7771 9.96667 88.2255 7.94286C89.3681 6.97143 91.4085 6 94.5099 6H114.669V8.67143H94.1834C92.796 8.67143 91.0004 9.15714 90.0211 10.2095C88.7968 11.5048 88.7968 13.5286 88.7968 14.9048C88.7968 17.4143 89.0417 19.7619 92.796 21.1381L108.221 26.5619C110.588 27.3714 112.628 28.181 114.016 29.4762C115.975 31.3381 116.464 33.8476 116.464 35.8714C116.464 36.1952 116.546 40.3238 114.506 42.8333C112.71 45.181 110.18 45.4238 108.14 45.4238H86.1035V42.6714H86.1851ZM123.32 6H126.421V45.3429H123.32V6ZM151.967 45.3429L132.053 30.1238C130.012 28.5857 128.625 26.7238 128.625 25.1048C128.625 23.5667 130.176 21.8667 131.482 20.8143L150.09 6H154.497L134.175 22.3524C133.44 22.919 131.645 24.0524 131.645 25.1857C131.645 26.4 133.359 27.6952 134.583 28.5857L156.537 45.3429H151.967Z" fill="#26292F"/>
<path d="M170.331 45.3429V8.67143H153.682V6H190V8.67143H173.351V45.3429H170.331V45.3429Z" fill="#26292F"/>
</g>
<defs>
<clipPath id="clip0_11_4">
<rect width="190" height="51" fill="white"/>
</clipPath>
</defs>
</svg>
