<svg width="266" height="51" viewBox="0 0 266 51" fill="none" xmlns="http://www.w3.org/2000/svg">
<g clip-path="url(#clip0_1_526)">
<path fill-rule="evenodd" clip-rule="evenodd" d="M0 9.47143V47.7619L11.9158 51L11.9974 37.319L62.762 24.2048V31.5714L16.2414 44.119L37.6246 49.5429L62.6804 43.3095L62.762 50.7571L74.1881 47.7619L74.2698 9.71429L11.9974 25.8238V17.6476L59.579 5.82857L37.6246 0L0 9.47143Z" fill="#26292F"/>
<path d="M86.1851 42.6714H108.548C110.915 42.6714 113.2 41.4571 113.2 35.9524C113.2 33.3619 112.628 31.0143 108.221 29.4762L92.3879 24.0524C90.4291 23.4048 88.552 22.3524 87.491 21.1381C85.8587 19.2762 85.5322 16.9286 85.5322 14.7429C85.5322 12.719 85.7771 9.96667 88.2255 7.94286C89.3681 6.97143 91.4085 6 94.5099 6H114.669V8.67143H94.1834C92.796 8.67143 91.0004 9.15714 90.0211 10.2095C88.7968 11.5048 88.7968 13.5286 88.7968 14.9048C88.7968 17.4143 89.0417 19.7619 92.796 21.1381L108.221 26.5619C110.588 27.3714 112.628 28.181 114.016 29.4762C115.975 31.3381 116.464 33.8476 116.464 35.8714C116.464 36.1952 116.546 40.3238 114.506 42.8333C112.71 45.181 110.18 45.4238 108.14 45.4238H86.1035V42.6714H86.1851ZM123.32 6H126.421V45.3429H123.32V6ZM151.967 45.3429L132.053 30.1238C130.012 28.5857 128.625 26.7238 128.625 25.1048C128.625 23.5667 130.176 21.8667 131.482 20.8143L150.09 6H154.497L134.175 22.3524C133.44 22.919 131.645 24.0524 131.645 25.1857C131.645 26.4 133.359 27.6952 134.583 28.5857L156.537 45.3429H151.967Z" fill="#26292F"/>
<path d="M170.331 45.3429V8.67143H153.682V6H190V8.67143H173.351V45.3429H170.331Z" fill="#26292F"/>
</g>
<path d="M202.696 11.836C202.696 11.124 202.8 10.496 203.008 9.952C203.224 9.408 203.512 8.956 203.872 8.596C204.24 8.228 204.664 7.952 205.144 7.768C205.632 7.584 206.148 7.492 206.692 7.492C207.228 7.492 207.732 7.584 208.204 7.768C208.684 7.952 209.104 8.228 209.464 8.596C209.824 8.956 210.108 9.408 210.316 9.952C210.532 10.496 210.64 11.124 210.64 11.836C210.64 12.548 210.532 13.176 210.316 13.72C210.108 14.264 209.824 14.72 209.464 15.088C209.104 15.448 208.684 15.72 208.204 15.904C207.732 16.088 207.228 16.18 206.692 16.18C206.148 16.18 205.632 16.088 205.144 15.904C204.664 15.72 204.24 15.448 203.872 15.088C203.512 14.72 203.224 14.264 203.008 13.72C202.8 13.176 202.696 12.548 202.696 11.836ZM203.92 11.836C203.92 12.34 203.984 12.8 204.112 13.216C204.24 13.624 204.42 13.972 204.652 14.26C204.892 14.548 205.18 14.772 205.516 14.932C205.86 15.084 206.244 15.16 206.668 15.16C207.092 15.16 207.472 15.084 207.808 14.932C208.144 14.772 208.428 14.548 208.66 14.26C208.9 13.972 209.084 13.624 209.212 13.216C209.34 12.8 209.404 12.34 209.404 11.836C209.404 11.332 209.34 10.876 209.212 10.468C209.084 10.052 208.9 9.7 208.66 9.412C208.428 9.124 208.144 8.904 207.808 8.752C207.472 8.592 207.092 8.512 206.668 8.512C206.244 8.512 205.86 8.592 205.516 8.752C205.18 8.904 204.892 9.124 204.652 9.412C204.42 9.7 204.24 10.052 204.112 10.468C203.984 10.876 203.92 11.332 203.92 11.836ZM217.6 7.684V8.692H214.984V16H213.82V8.692H211.204V7.684H217.6ZM219.537 11.14H220.161C220.425 11.14 220.693 11.12 220.965 11.08C221.237 11.04 221.485 10.968 221.709 10.864C221.933 10.752 222.117 10.604 222.261 10.42C222.405 10.236 222.477 10.004 222.477 9.724C222.477 9.364 222.321 9.072 222.009 8.848C221.705 8.616 221.297 8.5 220.785 8.5C220.345 8.5 219.949 8.552 219.597 8.656C219.245 8.752 218.985 8.852 218.817 8.956L218.445 8.008C218.541 7.944 218.669 7.884 218.829 7.828C218.997 7.764 219.181 7.708 219.381 7.66C219.589 7.612 219.813 7.576 220.053 7.552C220.293 7.52 220.541 7.504 220.797 7.504C221.213 7.504 221.597 7.548 221.949 7.636C222.301 7.724 222.605 7.86 222.861 8.044C223.117 8.22 223.317 8.448 223.461 8.728C223.605 9 223.677 9.324 223.677 9.7C223.677 10.084 223.553 10.444 223.305 10.78C223.065 11.116 222.709 11.36 222.237 11.512C222.477 11.576 222.705 11.668 222.921 11.788C223.145 11.9 223.337 12.048 223.497 12.232C223.665 12.408 223.797 12.616 223.893 12.856C223.997 13.096 224.049 13.376 224.049 13.696C224.049 14.136 223.965 14.516 223.797 14.836C223.637 15.148 223.409 15.404 223.113 15.604C222.825 15.804 222.473 15.948 222.057 16.036C221.641 16.132 221.181 16.18 220.677 16.18C220.373 16.18 220.085 16.156 219.813 16.108C219.541 16.068 219.297 16.02 219.081 15.964C218.865 15.9 218.677 15.832 218.517 15.76C218.357 15.688 218.233 15.628 218.145 15.58L218.493 14.62C218.581 14.668 218.697 14.724 218.841 14.788C218.993 14.852 219.161 14.912 219.345 14.968C219.529 15.024 219.733 15.072 219.957 15.112C220.181 15.152 220.417 15.172 220.665 15.172C221.345 15.172 221.873 15.06 222.249 14.836C222.633 14.604 222.825 14.216 222.825 13.672C222.825 13.352 222.757 13.092 222.621 12.892C222.493 12.684 222.313 12.52 222.081 12.4C221.857 12.28 221.589 12.2 221.277 12.16C220.973 12.112 220.641 12.088 220.281 12.088H219.537V11.14ZM230.256 13.396C230.256 13.06 230.196 12.78 230.076 12.556C229.956 12.332 229.784 12.156 229.56 12.028C229.336 11.9 229.068 11.812 228.756 11.764C228.452 11.708 228.116 11.68 227.748 11.68C227.612 11.68 227.464 11.68 227.304 11.68C227.152 11.68 227.004 11.688 226.86 11.704V15.028C227.132 15.052 227.336 15.064 227.472 15.064C227.608 15.064 227.768 15.064 227.952 15.064C228.248 15.064 228.536 15.04 228.816 14.992C229.096 14.944 229.34 14.856 229.548 14.728C229.764 14.6 229.936 14.432 230.064 14.224C230.192 14.008 230.256 13.732 230.256 13.396ZM231.48 13.396C231.48 13.844 231.396 14.236 231.228 14.572C231.06 14.908 230.82 15.188 230.508 15.412C230.196 15.636 229.816 15.804 229.368 15.916C228.92 16.028 228.416 16.084 227.856 16.084C227.52 16.084 227.16 16.068 226.776 16.036C226.392 16.012 226.032 15.96 225.696 15.88V7.684H226.86V10.708C227.004 10.692 227.156 10.684 227.316 10.684C227.484 10.676 227.64 10.672 227.784 10.672C230.248 10.672 231.48 11.58 231.48 13.396ZM232.74 7.684H233.904V16H232.74V7.684ZM238.217 16.072C238.049 16.072 237.865 16.068 237.665 16.06C237.473 16.052 237.277 16.04 237.077 16.024C236.885 16.008 236.693 15.988 236.501 15.964C236.309 15.94 236.133 15.908 235.973 15.868V7.804C236.133 7.764 236.309 7.732 236.501 7.708C236.693 7.684 236.885 7.664 237.077 7.648C237.277 7.632 237.473 7.62 237.665 7.612C237.857 7.604 238.037 7.6 238.205 7.6C238.685 7.6 239.133 7.636 239.549 7.708C239.973 7.78 240.337 7.904 240.641 8.08C240.953 8.248 241.197 8.472 241.373 8.752C241.549 9.032 241.637 9.376 241.637 9.784C241.637 10.24 241.529 10.616 241.313 10.912C241.097 11.2 240.809 11.416 240.449 11.56C240.937 11.704 241.325 11.932 241.613 12.244C241.901 12.556 242.045 12.996 242.045 13.564C242.045 14.396 241.737 15.024 241.121 15.448C240.513 15.864 239.545 16.072 238.217 16.072ZM237.125 12.124V15.052C237.213 15.06 237.317 15.068 237.437 15.076C237.541 15.084 237.661 15.092 237.797 15.1C237.941 15.1 238.105 15.1 238.289 15.1C238.633 15.1 238.957 15.08 239.261 15.04C239.573 14.992 239.845 14.912 240.077 14.8C240.309 14.688 240.493 14.532 240.629 14.332C240.773 14.132 240.845 13.88 240.845 13.576C240.845 13.304 240.793 13.076 240.689 12.892C240.585 12.7 240.433 12.548 240.233 12.436C240.041 12.324 239.809 12.244 239.537 12.196C239.265 12.148 238.961 12.124 238.625 12.124H237.125ZM237.125 11.188H238.349C238.637 11.188 238.909 11.168 239.165 11.128C239.421 11.088 239.641 11.016 239.825 10.912C240.017 10.808 240.165 10.672 240.269 10.504C240.381 10.336 240.437 10.124 240.437 9.868C240.437 9.628 240.381 9.428 240.269 9.268C240.157 9.1 240.001 8.968 239.801 8.872C239.609 8.768 239.381 8.692 239.117 8.644C238.853 8.596 238.573 8.572 238.277 8.572C237.981 8.572 237.749 8.576 237.581 8.584C237.413 8.592 237.261 8.604 237.125 8.62V11.188ZM248.244 13.396C248.244 13.06 248.184 12.78 248.064 12.556C247.944 12.332 247.772 12.156 247.548 12.028C247.324 11.9 247.056 11.812 246.744 11.764C246.44 11.708 246.104 11.68 245.736 11.68C245.6 11.68 245.452 11.68 245.292 11.68C245.14 11.68 244.992 11.688 244.848 11.704V15.028C245.12 15.052 245.324 15.064 245.46 15.064C245.596 15.064 245.756 15.064 245.94 15.064C246.236 15.064 246.524 15.04 246.804 14.992C247.084 14.944 247.328 14.856 247.536 14.728C247.752 14.6 247.924 14.432 248.052 14.224C248.18 14.008 248.244 13.732 248.244 13.396ZM249.468 13.396C249.468 13.844 249.384 14.236 249.216 14.572C249.048 14.908 248.808 15.188 248.496 15.412C248.184 15.636 247.804 15.804 247.356 15.916C246.908 16.028 246.404 16.084 245.844 16.084C245.508 16.084 245.148 16.068 244.764 16.036C244.38 16.012 244.02 15.96 243.684 15.88V7.684H244.848V10.708C244.992 10.692 245.144 10.684 245.304 10.684C245.472 10.676 245.628 10.672 245.772 10.672C248.236 10.672 249.468 11.58 249.468 13.396ZM250.728 7.684H251.892V16H250.728V7.684ZM208.264 21.684H209.428V30H208.264V26.16H204.196V30H203.032V21.684H204.196V25.152H208.264V21.684ZM217.049 30C216.913 29.64 216.785 29.288 216.665 28.944C216.545 28.592 216.421 28.236 216.293 27.876H212.525L211.769 30H210.557C210.877 29.12 211.177 28.308 211.457 27.564C211.737 26.812 212.009 26.1 212.273 25.428C212.545 24.756 212.813 24.116 213.077 23.508C213.341 22.892 213.617 22.284 213.905 21.684H214.973C215.261 22.284 215.537 22.892 215.801 23.508C216.065 24.116 216.329 24.756 216.593 25.428C216.865 26.1 217.141 26.812 217.421 27.564C217.701 28.308 218.001 29.12 218.321 30H217.049ZM215.957 26.916C215.701 26.22 215.445 25.548 215.189 24.9C214.941 24.244 214.681 23.616 214.409 23.016C214.129 23.616 213.861 24.244 213.605 24.9C213.357 25.548 213.109 26.22 212.861 26.916H215.957ZM219.45 30V21.684H220.614V29.004H223.734V21.684H224.898V29.004H228.018V21.684H229.182V30H219.45ZM231.251 30V21.684H232.391V27.84C232.647 27.416 232.959 26.932 233.327 26.388C233.703 25.844 234.099 25.292 234.515 24.732C234.939 24.164 235.363 23.616 235.787 23.088C236.219 22.552 236.623 22.084 236.999 21.684H237.923V30H236.783V23.508C236.559 23.764 236.315 24.06 236.051 24.396C235.787 24.732 235.515 25.092 235.235 25.476C234.955 25.852 234.671 26.244 234.383 26.652C234.103 27.06 233.831 27.464 233.567 27.864C233.303 28.256 233.055 28.636 232.823 29.004C232.599 29.372 232.399 29.704 232.223 30H231.251ZM244.973 30C244.853 29.76 244.709 29.496 244.541 29.208C244.373 28.912 244.189 28.608 243.989 28.296C243.789 27.976 243.581 27.66 243.365 27.348C243.149 27.028 242.941 26.728 242.741 26.448C242.541 26.728 242.333 27.028 242.117 27.348C241.901 27.66 241.693 27.976 241.493 28.296C241.301 28.608 241.117 28.912 240.941 29.208C240.773 29.496 240.629 29.76 240.509 30H239.225C239.585 29.296 240.001 28.58 240.473 27.852C240.953 27.124 241.461 26.376 241.997 25.608L239.333 21.684H240.677L242.729 24.78L244.757 21.684H246.089L243.473 25.56C244.017 26.336 244.529 27.092 245.009 27.828C245.489 28.564 245.913 29.288 246.281 30H244.973ZM209.188 35.684C208.94 35.956 208.66 36.26 208.348 36.596C208.036 36.924 207.708 37.264 207.364 37.616C207.028 37.96 206.692 38.3 206.356 38.636C206.02 38.972 205.704 39.284 205.408 39.572C205.752 39.812 206.116 40.108 206.5 40.46C206.884 40.812 207.26 41.188 207.628 41.588C207.996 41.988 208.34 42.396 208.66 42.812C208.988 43.228 209.26 43.624 209.476 44H208.108C207.868 43.624 207.592 43.248 207.28 42.872C206.968 42.488 206.636 42.124 206.284 41.78C205.94 41.428 205.588 41.104 205.228 40.808C204.876 40.512 204.532 40.26 204.196 40.052V44H203.032V35.684H204.196V39.356C204.476 39.092 204.784 38.796 205.12 38.468C205.456 38.132 205.788 37.796 206.116 37.46C206.444 37.124 206.752 36.804 207.04 36.5C207.336 36.188 207.584 35.916 207.784 35.684H209.188ZM213.728 36.68C213.712 37.128 213.696 37.564 213.68 37.988C213.664 38.404 213.64 38.812 213.608 39.212C213.576 39.604 213.528 39.988 213.464 40.364C213.4 40.74 213.312 41.108 213.2 41.468C213.088 41.828 212.948 42.168 212.78 42.488C212.62 42.8 212.416 43.076 212.168 43.316C211.928 43.548 211.64 43.736 211.304 43.88C210.976 44.024 210.588 44.104 210.14 44.12L210.008 43.112C210.568 43.048 211 42.872 211.304 42.584C211.616 42.296 211.872 41.856 212.072 41.264C212.296 40.592 212.436 39.784 212.492 38.84C212.556 37.888 212.588 36.836 212.588 35.684H217.304V44H216.14V36.68H213.728ZM219.368 44V35.684H220.508V41.84C220.764 41.416 221.076 40.932 221.444 40.388C221.82 39.844 222.216 39.292 222.632 38.732C223.056 38.164 223.48 37.616 223.904 37.088C224.336 36.552 224.74 36.084 225.116 35.684H226.04V44H224.9V37.508C224.676 37.764 224.432 38.06 224.168 38.396C223.904 38.732 223.632 39.092 223.352 39.476C223.072 39.852 222.788 40.244 222.5 40.652C222.22 41.06 221.948 41.464 221.684 41.864C221.42 42.256 221.172 42.636 220.94 43.004C220.716 43.372 220.516 43.704 220.34 44H219.368ZM228.098 44V35.684H233.174V36.68H229.262V39.152H232.742V40.124H229.262V43.004H233.474V44H228.098ZM240.186 35.684H241.35V44H240.186V40.16H236.118V44H234.954V35.684H236.118V39.152H240.186V35.684ZM248.971 35.684V36.692H246.355V44H245.191V36.692H242.575V35.684H248.971ZM249.536 39.836C249.536 39.124 249.64 38.496 249.848 37.952C250.064 37.408 250.352 36.956 250.712 36.596C251.08 36.228 251.504 35.952 251.984 35.768C252.472 35.584 252.988 35.492 253.532 35.492C254.068 35.492 254.572 35.584 255.044 35.768C255.524 35.952 255.944 36.228 256.304 36.596C256.664 36.956 256.948 37.408 257.156 37.952C257.372 38.496 257.48 39.124 257.48 39.836C257.48 40.548 257.372 41.176 257.156 41.72C256.948 42.264 256.664 42.72 256.304 43.088C255.944 43.448 255.524 43.72 255.044 43.904C254.572 44.088 254.068 44.18 253.532 44.18C252.988 44.18 252.472 44.088 251.984 43.904C251.504 43.72 251.08 43.448 250.712 43.088C250.352 42.72 250.064 42.264 249.848 41.72C249.64 41.176 249.536 40.548 249.536 39.836ZM250.76 39.836C250.76 40.34 250.824 40.8 250.952 41.216C251.08 41.624 251.26 41.972 251.492 42.26C251.732 42.548 252.02 42.772 252.356 42.932C252.7 43.084 253.084 43.16 253.508 43.16C253.932 43.16 254.312 43.084 254.648 42.932C254.984 42.772 255.268 42.548 255.5 42.26C255.74 41.972 255.924 41.624 256.052 41.216C256.18 40.8 256.244 40.34 256.244 39.836C256.244 39.332 256.18 38.876 256.052 38.468C255.924 38.052 255.74 37.7 255.5 37.412C255.268 37.124 254.984 36.904 254.648 36.752C254.312 36.592 253.932 36.512 253.508 36.512C253.084 36.512 252.7 36.592 252.356 36.752C252.02 36.904 251.732 37.124 251.492 37.412C251.26 37.7 251.08 38.052 250.952 38.468C250.824 38.876 250.76 39.332 250.76 39.836ZM261.456 44.072C261.288 44.072 261.104 44.068 260.904 44.06C260.712 44.052 260.516 44.04 260.316 44.024C260.124 44.008 259.932 43.988 259.74 43.964C259.548 43.94 259.372 43.908 259.212 43.868V35.804C259.372 35.764 259.548 35.732 259.74 35.708C259.932 35.684 260.124 35.664 260.316 35.648C260.516 35.632 260.712 35.62 260.904 35.612C261.096 35.604 261.276 35.6 261.444 35.6C261.924 35.6 262.372 35.636 262.788 35.708C263.212 35.78 263.576 35.904 263.88 36.08C264.192 36.248 264.436 36.472 264.612 36.752C264.788 37.032 264.876 37.376 264.876 37.784C264.876 38.24 264.768 38.616 264.552 38.912C264.336 39.2 264.048 39.416 263.688 39.56C264.176 39.704 264.564 39.932 264.852 40.244C265.14 40.556 265.284 40.996 265.284 41.564C265.284 42.396 264.976 43.024 264.36 43.448C263.752 43.864 262.784 44.072 261.456 44.072ZM260.364 40.124V43.052C260.452 43.06 260.556 43.068 260.676 43.076C260.78 43.084 260.9 43.092 261.036 43.1C261.18 43.1 261.344 43.1 261.528 43.1C261.872 43.1 262.196 43.08 262.5 43.04C262.812 42.992 263.084 42.912 263.316 42.8C263.548 42.688 263.732 42.532 263.868 42.332C264.012 42.132 264.084 41.88 264.084 41.576C264.084 41.304 264.032 41.076 263.928 40.892C263.824 40.7 263.672 40.548 263.472 40.436C263.28 40.324 263.048 40.244 262.776 40.196C262.504 40.148 262.2 40.124 261.864 40.124H260.364ZM260.364 39.188H261.588C261.876 39.188 262.148 39.168 262.404 39.128C262.66 39.088 262.88 39.016 263.064 38.912C263.256 38.808 263.404 38.672 263.508 38.504C263.62 38.336 263.676 38.124 263.676 37.868C263.676 37.628 263.62 37.428 263.508 37.268C263.396 37.1 263.24 36.968 263.04 36.872C262.848 36.768 262.62 36.692 262.356 36.644C262.092 36.596 261.812 36.572 261.516 36.572C261.22 36.572 260.988 36.576 260.82 36.584C260.652 36.592 260.5 36.604 260.364 36.62V39.188Z" fill="#59677E"/>
<defs>
<clipPath id="clip0_1_526">
<rect width="190" height="51" fill="white"/>
</clipPath>
</defs>
</svg>
